<?xml version="1.0" encoding="UTF-8" standalone="no"?>
<svg
   xmlns:dc="http://purl.org/dc/elements/1.1/"
   xmlns:cc="http://creativecommons.org/ns#"
   xmlns:rdf="http://www.w3.org/1999/02/22-rdf-syntax-ns#"
   xmlns:svg="http://www.w3.org/2000/svg"
   xmlns="http://www.w3.org/2000/svg"
   xmlns:sodipodi="http://sodipodi.sourceforge.net/DTD/sodipodi-0.dtd"
   xmlns:inkscape="http://www.inkscape.org/namespaces/inkscape"
   width="32"
   height="32"
   stroke="#000"
   fill="none"
   id="svg2"
   version="1.1"
   inkscape:version="0.91 r13725"
   sodipodi:docname="standardizeurl2.svg">
  <metadata
     id="metadata12">
    <rdf:RDF>
      <cc:Work
         rdf:about="">
        <dc:format>image/svg+xml</dc:format>
        <dc:type
           rdf:resource="http://purl.org/dc/dcmitype/StillImage" />
        <dc:title></dc:title>
      </cc:Work>
    </rdf:RDF>
  </metadata>
  <defs
     id="defs10" />
  <sodipodi:namedview
     pagecolor="#ffffff"
     bordercolor="#666666"
     borderopacity="1"
     objecttolerance="10"
     gridtolerance="10"
     guidetolerance="10"
     inkscape:pageopacity="0"
     inkscape:pageshadow="2"
     inkscape:window-width="1920"
     inkscape:window-height="1027"
     id="namedview8"
     showgrid="false"
     inkscape:zoom="0.14047619"
     inkscape:cx="1336.3229"
     inkscape:cy="-1132.9181"
     inkscape:window-x="-8"
     inkscape:window-y="-8"
     inkscape:window-maximized="1"
     inkscape:current-layer="svg2" />
  <rect
     style="opacity:1;fill:#3d6480;fill-opacity:1;fill-rule:nonzero;stroke:#3d6480;stroke-width:38.79802704;stroke-linecap:round;stroke-linejoin:round;stroke-miterlimit:4;stroke-dasharray:none;stroke-opacity:1"
     id="rect4140"
     width="198.02234"
     height="58.338783"
     x="108.94113"
     y="241.39441" />
  <text
     xml:space="preserve"
     style="font-style:normal;font-variant:normal;font-weight:bold;font-stretch:normal;font-size:94.00445557px;line-height:127.99999714%;font-family:sans-serif;-inkscape-font-specification:'sans-serif Bold';letter-spacing:0px;word-spacing:0px;fill:#ffffff;fill-opacity:1;stroke:none;stroke-width:1.175;stroke-linecap:butt;stroke-linejoin:miter;stroke-opacity:1;stroke-miterlimit:4;stroke-dasharray:none;"
     x="100.08205"
     y="306.77219"
     id="text4142"
     sodipodi:linespacing="128%"
     transform="scale(1.007243,0.99280908)"><tspan
       sodipodi:role="line"
       id="tspan4144"
       x="100.08205"
       y="306.77219"
       style="stroke-width:1.175;stroke-miterlimit:4;stroke-dasharray:none;stroke:none;fill:#ffffff;fill-opacity:1;stroke-opacity:1;">URL</tspan></text>
  <path
     style="opacity:1;fill:#3d6480;fill-opacity:1;fill-rule:nonzero;stroke:none;stroke-width:1.11099994;stroke-linejoin:round;stroke-miterlimit:4;stroke-dasharray:none"
     d="M 189.33873,390.71868 C 135.33998,384.95137 88.18559,358.76867 55.815102,316.57904 21.648492,272.04843 9.8566366,214.34075 23.818323,159.99135 34.467691,118.53603 59.978644,81.451031 95.672953,55.537048 122.95159,35.732824 156.63468,23.221105 191.06907,20.101775 c 9.56973,-0.866899 27.53656,-0.741868 37.28358,0.259457 51.87547,5.329239 99.38353,31.400128 131.11089,71.949422 39.06781,49.930796 49.75673,114.734426 28.7444,174.268356 -21.35716,60.51092 -73.94571,106.37581 -138.17215,120.50627 -13.74824,3.02475 -21.25181,3.78894 -39.06795,3.97878 -9.19958,0.098 -18.93267,-0.0574 -21.62911,-0.34538 z m 10.95875,-52.14722 0,-30.18653 8.07487,0 8.07486,0 0,30.17787 0,30.17788 3.60485,-0.31604 c 24.34524,-2.13436 44.14712,-7.46854 63.56002,-17.12163 50.08713,-24.90592 83.42353,-71.08508 90.5731,-125.46622 0.48149,-3.66226 0.87542,-7.91518 0.87542,-9.45093 l 0,-2.79226 -79.30669,0 -79.3067,0 0,7.33504 0,7.33504 -8.07486,0 -8.07487,0 0,-7.33504 0,-7.33504 -79.38945,0 -79.389448,0 0.397534,5.21916 c 4.245208,55.73451 39.243452,106.67599 90.881304,132.28176 19.22239,9.53184 41.46198,15.63898 62.88585,17.26885 1.42752,0.1086 3.0497,0.24181 3.60485,0.29603 0.94998,0.0928 1.00936,-1.67748 1.00936,-30.08794 z m 0,-165.3206 0,-24.54419 -4.05384,0 c -4.71591,0 -18.61662,-1.36186 -26.51528,-2.59772 -31.15656,-4.8749 -61.10176,-15.59992 -88.369167,-31.6498 l -8.183772,-4.81707 -1.185901,1.45493 c -2.260701,2.77353 -8.616038,13.09821 -12.210198,19.83629 -9.79302,18.35924 -16.451372,41.17088 -17.860951,61.19186 l -0.399184,5.66988 79.389143,0 79.38915,0 0,-24.54418 z m 174.56951,18.76078 c -1.46328,-22.93969 -10.59198,-50.49646 -23.59779,-71.23456 -3.38794,-5.40217 -7.2732,-11.00257 -7.633,-11.00257 -0.0937,0 -3.63811,2.05655 -7.87656,4.57011 -15.0908,8.94939 -35.31817,17.97051 -52.19921,23.28011 -18.59723,5.8494 -41.58254,10.04467 -59.75933,10.90727 l -7.35389,0.34899 0,24.45702 0,24.45703 79.39435,0 79.39435,0 -0.36892,-5.7834 z M 200.29748,87.838698 l 0,-45.633657 -2.73968,0.235897 c -25.25533,2.174577 -42.81542,6.841102 -63.58955,16.898679 -16.38217,7.93125 -31.14024,18.390172 -44.345847,31.427545 l -6.567015,6.483356 2.52958,1.567786 c 31.425252,19.476726 71.452902,32.132086 108.367982,34.262256 1.74474,0.10066 3.88603,0.23001 4.7584,0.28742 l 1.58613,0.10437 0,-45.633652 z m 33.7414,44.153552 c 26.46625,-2.77522 52.8656,-10.37837 76.99959,-22.17626 8.91689,-4.35902 21.56051,-11.4331 22.17611,-12.407493 C 333.64742,96.723359 322.44936,85.707822 315.94107,80.416536 297.66746,65.559987 277.26435,54.881409 255.12848,48.58847 244.20714,45.483676 233.7478,43.694685 219.18689,42.440938 l -2.73968,-0.235897 0,45.646859 0,45.64686 4.7584,-0.32989 c 2.61712,-0.18144 8.3921,-0.71092 12.83327,-1.17662 z"
     id="path4146"
     inkscape:connector-curvature="0" />
  <path
     style="opacity:1;fill:#eff9fe;fill-opacity:1;fill-rule:nonzero;stroke:none;stroke-width:31.46025848;stroke-linecap:round;stroke-linejoin:round;stroke-miterlimit:4;stroke-dasharray:none;stroke-opacity:1"
     d="m 42.224922,191.95921 c 1.618156,-21.19021 8.870576,-45.0157 19.428986,-63.8277 4.248282,-7.56919 10.90921,-17.81167 11.583352,-17.81167 0.26763,0 3.458197,1.73651 7.09015,3.85892 34.88256,20.38435 74.66547,32.69909 110.89431,34.32716 l 8.65157,0.3888 0,24.44232 0,24.44232 -79.0464,0 -79.046415,0 0.444447,-5.82015 z"
     id="path4148"
     inkscape:connector-curvature="0" />
  <path
     style="opacity:1;fill:#eff9fe;fill-opacity:1;fill-rule:nonzero;stroke:none;stroke-width:0;stroke-linecap:round;stroke-linejoin:round;stroke-miterlimit:4;stroke-dasharray:none;stroke-opacity:1"
     d="M 188.78116,132.31481 C 163.64853,130.62307 132.44385,122.11988 107.06553,110.0475 99.468235,106.4335 85.824512,98.964914 84.438929,97.66168 83.161668,96.46033 99.621123,81.362045 110.87738,73.409647 c 11.46626,-8.100768 22.48721,-14.002212 36.92049,-19.770012 14.06805,-5.621847 25.3285,-8.122394 49.0867,-10.900415 l 2.98872,-0.349469 0,45.290736 0,45.290733 -2.04491,-0.0925 c -1.12471,-0.0509 -5.19596,-0.30465 -9.04722,-0.56388 z"
     id="path4150"
     inkscape:connector-curvature="0" />
  <path
     style="opacity:1;fill:#eff9fe;fill-opacity:1;fill-rule:nonzero;stroke:none;stroke-width:0;stroke-linecap:round;stroke-linejoin:round;stroke-miterlimit:4;stroke-dasharray:none;stroke-opacity:1"
     d="m 216.86183,87.680487 0,-45.290736 2.67412,0.308293 c 19.54449,2.253235 26.9507,3.610342 38.10817,6.982911 19.04137,5.75563 37.6326,15.337366 54.43199,28.053692 5.07464,3.841268 20.55948,18.488348 20.55948,19.447185 0,1.454089 -25.74805,14.706738 -37.43771,19.269368 -17.40101,6.79186 -32.68911,11.0152 -49.58569,13.69809 -6.94313,1.10245 -22.80051,2.79059 -26.39084,2.8095 l -2.35952,0.0124 0,-45.290733 z"
     id="path4152"
     inkscape:connector-curvature="0" />
  <path
     style="opacity:1;fill:#eff9fe;fill-opacity:1;fill-rule:nonzero;stroke:none;stroke-width:0;stroke-linecap:round;stroke-linejoin:round;stroke-miterlimit:4;stroke-dasharray:none;stroke-opacity:1"
     d="m 216.86183,173.59351 0,-24.18584 2.67412,-0.32447 c 1.47077,-0.17845 5.50555,-0.48628 8.96618,-0.68406 14.51639,-0.82962 37.9259,-5.26208 53.79704,-10.18615 16.9278,-5.25191 36.17644,-13.69916 52.70688,-23.13037 4.59135,-2.61953 8.49464,-4.76278 8.67398,-4.76278 0.17934,0 2.5979,3.46849 5.37458,7.70776 10.811,16.50556 19.17391,37.06159 23.17887,56.97364 1.27082,6.31829 2.55885,16.663 2.55885,20.5511 l 0,2.22702 -78.96525,0 -78.96525,0 0,-24.18585 z"
     id="path4154"
     inkscape:connector-curvature="0" />
  <path
     style="opacity:1;fill:#eff9fe;fill-opacity:1;fill-rule:nonzero;stroke:none;stroke-width:0;stroke-linecap:round;stroke-linejoin:round;stroke-miterlimit:4;stroke-dasharray:none;stroke-opacity:1"
     d="m 216.86183,343.77015 0,-24.52381 47.9769,-0.17249 47.97689,-0.17249 3.34665,-1.85389 c 4.0442,-2.24031 6.71796,-5.16607 8.72253,-9.54465 l 1.49994,-3.27629 -0.17791,-34.50473 c -0.17759,-34.44478 -0.18036,-34.50935 -1.59787,-37.16214 -1.91611,-3.5859 -5.18127,-6.73868 -9.14025,-8.82565 l -3.28229,-1.73025 -47.66229,-0.17622 -47.6623,-0.17622 0,-3.75631 0,-3.75632 78.96525,0 78.96525,0 0,2.17 c 0,3.88851 -1.89743,16.85535 -3.54683,24.23865 -3.16407,14.16351 -9.16566,29.88611 -16.40239,42.96999 -22.78808,41.20045 -65.12567,71.98703 -111.78587,81.2872 -7.43366,1.48165 -21.6343,3.48943 -24.68012,3.48943 l -1.51529,0 0,-24.52381 z"
     id="path4156"
     inkscape:connector-curvature="0" />
  <path
     style="opacity:1;fill:#eff9fe;fill-opacity:1;fill-rule:nonzero;stroke:none;stroke-width:0;stroke-linecap:round;stroke-linejoin:round;stroke-miterlimit:4;stroke-dasharray:none;stroke-opacity:1"
     d="M 188.08788,367.33886 C 173.28261,365.40212 158.52914,361.53333 144.50324,355.90967 94.298597,335.78024 56.473389,291.27844 45.114979,238.97825 43.881998,233.30095 41.94279,219.1854 41.94279,215.8878 l 0,-1.74911 78.96525,0 78.96525,0 0,3.77523 0,3.77524 -46.76158,0 c -51.87623,0 -50.4957,-0.10174 -56.037526,4.12975 -3.538082,2.70153 -5.625875,5.84627 -6.984823,10.52088 -0.880601,3.02916 -0.986454,7.61567 -0.825825,35.78219 0.179482,31.47235 0.219016,32.38285 1.529064,35.2161 1.844022,3.98807 5.504226,7.87237 9.31174,9.88184 l 3.18596,1.68144 48.29887,0.17241 48.29887,0.1724 -0.16467,24.3666 -0.16468,24.36659 -2.51682,0.10078 c -1.38425,0.0554 -5.41354,-0.27814 -8.95399,-0.74128 z"
     id="path4158"
     inkscape:connector-curvature="0" />
  <path
     style="opacity:1;fill:#ff9c04;fill-opacity:1;fill-rule:nonzero;stroke:#ff9c04;stroke-width:1.65764999;stroke-linecap:round;stroke-linejoin:round;stroke-miterlimit:4;stroke-dasharray:none;stroke-opacity:1"
     d="m 369.43434,388.4508 c -2.15784,-8.88144 -4.03699,-16.22901 -4.17589,-16.32794 -0.13891,-0.099 -2.64902,-0.75168 -5.57803,-1.45058 -2.929,-0.69892 -9.8229,-2.39626 -15.31975,-3.77188 l -9.99428,-2.50112 15.55537,-3.96755 15.55536,-3.96759 0.34203,-1.17933 c 0.1881,-0.64862 1.53457,-6.22906 2.99215,-12.40096 2.84739,-12.05678 4.32275,-17.37003 4.70562,-16.94633 0.13193,0.14606 1.79185,7.02126 3.68864,15.27826 1.89681,8.25698 3.48274,15.06075 3.52431,15.11948 0.0881,0.12462 12.7614,3.40607 23.61695,6.11517 4.1536,1.03657 7.5122,1.91825 7.46357,1.95928 -0.0485,0.041 -7.06904,1.8167 -15.60093,3.94597 l -15.51252,3.87137 -3.66962,16.18592 -3.66964,16.18591 -3.92334,-16.14808 z"
     id="path4164"
     inkscape:connector-curvature="0" />
  <path
     style="opacity:1;fill:#ff9c04;fill-opacity:1;fill-rule:nonzero;stroke:#ff9c04;stroke-width:0.8442086;stroke-linecap:round;stroke-linejoin:round;stroke-miterlimit:4;stroke-dasharray:none;stroke-opacity:1"
     d="m 315.4377,409.8868 c -0.21767,-0.7021 -1.08265,-4.10883 -1.9223,-7.57051 -2.35703,-9.71743 -2.40232,-9.78281 -8.40908,-12.13258 -2.90281,-1.13553 -7.37152,-2.61415 -9.93052,-3.28579 -2.55901,-0.67165 -4.38589,-1.45546 -4.05979,-1.74178 0.32616,-0.28639 4.42076,-1.51506 9.09925,-2.73056 4.67847,-1.21549 8.87593,-2.42989 9.32766,-2.69865 0.45176,-0.26879 2.04073,-4.88636 3.5311,-10.26137 1.49037,-5.37501 2.80651,-9.86443 2.92477,-9.97646 0.11848,-0.11197 1.4384,4.12833 2.93361,9.42305 1.49523,5.29476 3.19002,9.96498 3.76621,10.37835 0.57619,0.41332 4.80066,1.78598 9.38767,3.05029 8.82382,2.43214 10.44429,3.17429 8.22981,3.7692 -17.79381,4.78013 -17.91343,4.87058 -21.24051,16.05936 -1.34844,4.53478 -2.6296,8.41358 -2.84698,8.61953 -0.21734,0.20591 -0.57328,-0.19993 -0.7909,-0.90208 z"
     id="path4840"
     inkscape:connector-curvature="0" />
  <path
     style="opacity:1;fill:#ff9c04;fill-opacity:1;fill-rule:nonzero;stroke:#ff9c04;stroke-width:0.26138771;stroke-linecap:round;stroke-linejoin:round;stroke-miterlimit:4;stroke-dasharray:none;stroke-opacity:1"
     d="m 393.94528,328.41946 c -0.0825,-0.1334 -0.64222,-2.45927 -1.24394,-5.16861 -0.60172,-2.70934 -1.25209,-5.16729 -1.44526,-5.46211 -0.55578,-0.84822 -3.73655,-2.23502 -9.1972,-4.00993 -1.01561,-0.33011 -1.76641,-0.67131 -1.66844,-0.75824 0.098,-0.0869 2.03009,-0.71481 4.2936,-1.39531 2.26351,-0.68051 4.616,-1.42173 5.22775,-1.64716 l 1.11229,-0.40988 0.94188,-3.88988 c 1.64556,-6.79599 2.12376,-8.50638 2.29088,-8.19389 0.0882,0.16487 0.7809,2.87151 1.53937,6.01475 0.75848,3.14324 1.50831,5.82226 1.66628,5.95337 0.15798,0.13111 2.5177,0.96297 5.24383,1.84857 2.72613,0.88561 4.96683,1.7103 4.97934,1.83265 0.0125,0.12235 -1.78838,0.8231 -4.00199,1.55721 -2.2136,0.73411 -4.4395,1.61049 -4.94645,1.94752 -1.31994,0.87752 -1.89473,2.20003 -3.05864,7.03755 -0.98117,4.07796 -1.41344,5.26094 -1.7333,4.74339 z"
     id="path4842"
     inkscape:connector-curvature="0" />
</svg>
