<?xml version="1.0" encoding="UTF-8" standalone="no"?>
<svg
   xmlns:dc="http://purl.org/dc/elements/1.1/"
   xmlns:cc="http://creativecommons.org/ns#"
   xmlns:rdf="http://www.w3.org/1999/02/22-rdf-syntax-ns#"
   xmlns:svg="http://www.w3.org/2000/svg"
   xmlns="http://www.w3.org/2000/svg"
   xmlns:sodipodi="http://sodipodi.sourceforge.net/DTD/sodipodi-0.dtd"
   xmlns:inkscape="http://www.inkscape.org/namespaces/inkscape"
   version="1.1"
   id="Capa_1"
   x="0px"
   y="0px"
   width="32px"
   height="32px"
   viewBox="0 0 32.667 32.667"
   style="enable-background:new 0 0 32.667 32.667;"
   xml:space="preserve"
   inkscape:version="0.91 r13725"
   sodipodi:docname="standardizeurl.svg"><metadata
     id="metadata41"><rdf:RDF><cc:Work
         rdf:about=""><dc:format>image/svg+xml</dc:format><dc:type
           rdf:resource="http://purl.org/dc/dcmitype/StillImage" /><dc:title></dc:title></cc:Work></rdf:RDF></metadata><defs
     id="defs39" /><sodipodi:namedview
     pagecolor="#ffffff"
     bordercolor="#666666"
     borderopacity="1"
     objecttolerance="10"
     gridtolerance="10"
     guidetolerance="10"
     inkscape:pageopacity="0"
     inkscape:pageshadow="2"
     inkscape:window-width="1920"
     inkscape:window-height="1027"
     id="namedview37"
     showgrid="false"
     inkscape:zoom="6.3197668"
     inkscape:cx="30.378623"
     inkscape:cy="-7.4932268"
     inkscape:window-x="-8"
     inkscape:window-y="-8"
     inkscape:window-maximized="1"
     inkscape:current-layer="Capa_1" /><g
     id="g7" /><g
     id="g9" /><g
     id="g11" /><g
     id="g13" /><g
     id="g15" /><g
     id="g17" /><g
     id="g19" /><g
     id="g21" /><g
     id="g23" /><g
     id="g25" /><g
     id="g27" /><g
     id="g29" /><g
     id="g31" /><g
     id="g33" /><g
     id="g35" /><text
     xml:space="preserve"
     style="font-style:normal;font-variant:normal;font-weight:bold;font-stretch:normal;font-size:94.00445557px;line-height:127.99999714%;font-family:sans-serif;-inkscape-font-specification:'sans-serif Bold';letter-spacing:0px;word-spacing:0px;fill:#ffffff;fill-opacity:1;stroke:none;stroke-width:1.17499995;stroke-linecap:butt;stroke-linejoin:miter;stroke-miterlimit:4;stroke-dasharray:none;stroke-opacity:1"
     x="-353.44058"
     y="443.45764"
     id="text4142"
     sodipodi:linespacing="128%"
     transform="scale(1.007243,0.99280908)"><tspan
       sodipodi:role="line"
       id="tspan4144"
       x="-353.44058"
       y="443.45764"
       style="fill:#ffffff;fill-opacity:1;stroke:none;stroke-width:1.17499995;stroke-miterlimit:4;stroke-dasharray:none;stroke-opacity:1">URL</tspan></text>
<rect
     style="opacity:1;fill:#3d6480;fill-opacity:1;fill-rule:nonzero;stroke:#3d6480;stroke-width:2.64016032;stroke-linecap:round;stroke-linejoin:round;stroke-miterlimit:4;stroke-dasharray:none;stroke-opacity:1"
     id="rect4140"
     width="14.199494"
     height="3.7673855"
     x="7.5332928"
     y="15.292661" /><text
     xml:space="preserve"
     style="font-style:normal;font-variant:normal;font-weight:bold;font-stretch:normal;font-size:6.39689302px;line-height:127.99999714%;font-family:sans-serif;-inkscape-font-specification:'sans-serif Bold';letter-spacing:0px;word-spacing:0px;fill:#ffffff;fill-opacity:1;stroke:none;stroke-width:1.17499995;stroke-linecap:butt;stroke-linejoin:miter;stroke-miterlimit:4;stroke-dasharray:none;stroke-opacity:1"
     x="6.5480862"
     y="20.561279"
     id="text4142-3"
     sodipodi:linespacing="128%"
     transform="scale(1.0613832,0.94216679)"><tspan
       sodipodi:role="line"
       id="tspan4144-6"
       x="6.5480862"
       y="20.561279"
       style="fill:#ffffff;fill-opacity:1;stroke:none;stroke-width:1.17499995;stroke-miterlimit:4;stroke-dasharray:none;stroke-opacity:1">URL</tspan></text>
<path
     style="opacity:1;fill:#3d6480;fill-opacity:1;fill-rule:nonzero;stroke:none;stroke-width:1.11099994;stroke-linejoin:round;stroke-miterlimit:4;stroke-dasharray:none"
     d="M 13.29833,24.935682 C 9.4262668,24.563242 6.0449888,22.872424 3.7238138,20.147913 1.2738458,17.272228 0.42829284,13.545597 1.4294358,10.035838 2.1930648,7.3587461 4.0223668,4.9638839 6.5818818,3.2904185 8.5379388,2.0115037 10.953235,1.2035286 13.422407,1.0020883 c 0.686212,-0.055984 1.97455,-0.047907 2.673476,0.016744 3.71981,0.3441506 7.126447,2.0277468 9.401503,4.6463264 2.801418,3.2244183 3.567882,7.4092903 2.061164,11.2538553 -1.53145,3.907657 -5.30239,6.869507 -9.907845,7.78202 -0.985839,0.195332 -1.523893,0.24468 -2.801425,0.25694 -0.659673,0.0063 -1.357599,-0.0038 -1.55095,-0.0223 z m 0.785814,-3.367548 0,-1.949377 0.579021,0 0.579022,0 0,1.948818 0,1.948818 0.25849,-0.02041 c 1.745714,-0.137833 3.165635,-0.482301 4.557665,-1.105677 3.591576,-1.608366 5.982013,-4.590512 6.494684,-8.102321 0.03452,-0.236501 0.06278,-0.511144 0.06278,-0.61032 l 0,-0.180317 -5.686805,0 -5.686808,0 0,0.47368 0,0.47368 -0.579022,0 -0.57902,0 0,-0.47368 0,-0.47368 -5.6927432,0 -5.692741,0 0.0285,0.337041 c 0.304411,3.599208 2.814014,6.888892 6.516784,8.542455 1.3783702,0.615543 2.9730952,1.009928 4.5093252,1.115181 0.102364,0.007 0.218684,0.01562 0.258494,0.01911 0.06812,0.006 0.07237,-0.108327 0.07237,-1.943011 z m 0,-10.676027 0,-1.5850092 -0.290689,0 c -0.33816,0 -1.334931,-0.087947 -1.901317,-0.1677544 C 9.6580108,8.8245336 7.5107428,8.1319374 5.5554908,7.0954718 l -0.586828,-0.3110764 -0.085037,0.093959 c -0.162106,0.1791081 -0.617824,0.8458504 -0.875552,1.2809806 -0.702221,1.1855971 -1.179671,2.6587206 -1.280744,3.9516296 l -0.02862,0.366149 5.692719,0 5.6927202,0 0,-1.585007 z m 12.517772,1.211528 C 26.496988,10.622242 25.8424,8.8426878 24.909799,7.5034691 24.666862,7.1546108 24.388264,6.7929487 24.362463,6.7929487 c -0.0067,0 -0.260876,0.1328076 -0.5648,0.2951255 -1.082108,0.5779333 -2.532543,1.160497 -3.743022,1.503377 -1.333544,0.3777419 -2.981739,0.6486624 -4.285135,0.7043674 l -0.527319,0.022535 0,1.5793774 0,1.579379 5.693089,0 5.693095,0 -0.02647,-0.373478 z m -12.517772,-6.7272503 0,-2.9469184 -0.196454,0.015225 c -1.810971,0.140429 -3.070142,0.4417839 -4.5597842,1.0912791 -1.17471,0.5121833 -2.232958,1.1875955 -3.179886,2.029518 l -0.4709,0.4186795 0.181387,0.1012474 c 2.253396,1.2577594 5.1236402,2.0750142 7.7706932,2.2125773 0.125108,0.0065 0.278653,0.014851 0.341206,0.018562 l 0.113738,0.00675 0,-2.9469165 z M 16.503623,8.22772 c 1.897802,-0.1792171 3.790806,-0.6702115 5.521372,-1.432093 0.6394,-0.2814943 1.54603,-0.7383218 1.59017,-0.8012483 C 23.646194,5.9501361 22.84323,5.2387776 22.376544,4.8970774 21.066207,3.9376742 19.603169,3.2480782 18.015884,2.8416929 17.232752,2.6411932 16.482749,2.5256651 15.438636,2.4447002 l -0.196449,-0.015225 0,2.9477704 0,2.9477702 0.341206,-0.021301 c 0.187665,-0.011716 0.601768,-0.04591 0.92023,-0.075982 z"
     id="path4146"
     inkscape:connector-curvature="0" /><path
     style="opacity:1;fill:#eff9fe;fill-opacity:1;fill-rule:nonzero;stroke:none;stroke-width:31.46025848;stroke-linecap:round;stroke-linejoin:round;stroke-miterlimit:4;stroke-dasharray:none;stroke-opacity:1"
     d="m 2.7493118,12.10025 c 0.116032,-1.368417 0.636077,-2.9070124 1.393182,-4.121848 0.30463,-0.4888012 0.782264,-1.1502364 0.830601,-1.1502364 0.0192,0 0.247978,0.1121413 0.508411,0.2492002 2.501308,1.3163742 5.3540032,2.1116312 7.9518462,2.2167686 l 0.620376,0.025102 0,1.5784286 0,1.57843 -5.6681452,0 -5.668144,0 0.03187,-0.375852 z"
     id="path4148"
     inkscape:connector-curvature="0" /><path
     style="opacity:1;fill:#eff9fe;fill-opacity:1;fill-rule:nonzero;stroke:none;stroke-width:0;stroke-linecap:round;stroke-linejoin:round;stroke-miterlimit:4;stroke-dasharray:none;stroke-opacity:1"
     d="M 13.258348,8.2485498 C 11.456175,8.1393012 9.2185968,7.5901843 7.3988058,6.8105782 6.8540288,6.5771939 5.8756848,6.094888 5.7763318,6.0107303 c -0.09159,-0.077582 1.088661,-1.052595 1.895806,-1.5661406 0.822206,-0.5231279 1.61248,-0.9042329 2.6474412,-1.2767046 1.008773,-0.3630455 1.81622,-0.5245241 3.519835,-0.7039232 l 0.214314,-0.022564 0,2.9247718 0,2.9247748 -0.146634,-0.00592 c -0.08065,-0.00329 -0.372584,-0.019672 -0.648746,-0.036415 z"
     id="path4150"
     inkscape:connector-curvature="0" /><path
     style="opacity:1;fill:#eff9fe;fill-opacity:1;fill-rule:nonzero;stroke:none;stroke-width:0;stroke-linecap:round;stroke-linejoin:round;stroke-miterlimit:4;stroke-dasharray:none;stroke-opacity:1"
     d="m 15.271917,5.3661655 0,-2.9247719 0.19175,0.019907 c 1.401469,0.1455068 1.932543,0.2331481 2.732604,0.4509399 1.365391,0.371683 2.698502,0.9904532 3.903131,1.8116421 0.363885,0.2480613 1.474249,1.1939346 1.474249,1.2558571 0,0.0939 -1.846305,0.9497283 -2.684529,1.2443685 -1.247767,0.4386051 -2.344022,0.7113386 -3.555619,0.8845931 -0.497869,0.071194 -1.634945,0.1802102 -1.892396,0.1814312 l -0.16919,8.014e-4 0,-2.92477 z"
     id="path4152"
     inkscape:connector-curvature="0" /><path
     style="opacity:1;fill:#eff9fe;fill-opacity:1;fill-rule:nonzero;stroke:none;stroke-width:0;stroke-linecap:round;stroke-linejoin:round;stroke-miterlimit:4;stroke-dasharray:none;stroke-opacity:1"
     d="m 15.271917,10.914235 0,-1.561868 0.19175,-0.020956 C 15.56913,9.319892 15.85845,9.300006 16.106602,9.287237 17.14752,9.233659 18.826134,8.9474235 19.964199,8.6294387 c 1.213834,-0.3391553 2.594089,-0.8846603 3.779429,-1.4937075 0.329227,-0.1691631 0.60912,-0.3075674 0.621981,-0.3075674 0.01287,0 0.186287,0.2239874 0.385391,0.4977508 0.775217,1.0658893 1.374894,2.3933507 1.662077,3.6792254 0.09112,0.40802 0.183487,1.076058 0.183487,1.327143 l 0,0.143815 -5.662326,0 -5.662321,0 0,-1.561866 z"
     id="path4154"
     inkscape:connector-curvature="0" /><path
     style="opacity:1;fill:#eff9fe;fill-opacity:1;fill-rule:nonzero;stroke:none;stroke-width:0;stroke-linecap:round;stroke-linejoin:round;stroke-miterlimit:4;stroke-dasharray:none;stroke-opacity:1"
     d="m 15.271917,21.903853 0,-1.583692 3.440255,-0.01114 3.440256,-0.01114 0.239976,-0.119721 c 0.289995,-0.144673 0.481722,-0.333613 0.625463,-0.61637 l 0.107555,-0.211576 -0.01276,-2.228238 c -0.01271,-2.224365 -0.01295,-2.228534 -0.114577,-2.399846 -0.137397,-0.231568 -0.371531,-0.435168 -0.655416,-0.56994 l -0.235363,-0.111736 -3.417694,-0.01138 -3.417698,-0.01138 0,-0.242574 0,-0.242575 5.662321,0 5.662326,0 0,0.140133 c 0,0.251112 -0.136061,1.08848 -0.254334,1.565277 -0.226883,0.914647 -0.657236,1.929977 -1.176158,2.774904 -1.634052,2.660632 -4.669933,4.648758 -8.015776,5.249342 -0.533043,0.09568 -1.55132,0.22534 -1.769725,0.22534 l -0.108654,0 0,-1.583692 z"
     id="path4156"
     inkscape:connector-curvature="0" /><path
     style="opacity:1;fill:#eff9fe;fill-opacity:1;fill-rule:nonzero;stroke:none;stroke-width:0;stroke-linecap:round;stroke-linejoin:round;stroke-miterlimit:4;stroke-dasharray:none;stroke-opacity:1"
     d="m 13.208635,23.425867 c -1.061636,-0.12507 -2.119554,-0.374909 -3.1253,-0.738071 -3.6000012,-1.299912 -6.3123182,-4.173738 -7.1267892,-7.551165 -0.08841,-0.366627 -0.227465,-1.278178 -0.227465,-1.491128 l 0,-0.112955 5.66232,0 5.6623272,0 0,0.243796 0,0.243797 -3.353111,0 c -3.7198632,0 -3.6208742,-0.0066 -4.0182552,0.26669 -0.253706,0.174459 -0.403416,0.377539 -0.500861,0.679415 -0.06315,0.195616 -0.07073,0.491803 -0.05921,2.310731 0.01287,2.032412 0.01571,2.091212 0.109646,2.274176 0.132226,0.257541 0.394689,0.50838 0.667713,0.638147 l 0.228453,0.108584 3.4633422,0.01112 3.463345,0.01113 -0.01179,1.57354 -0.0118,1.573538 -0.180472,0.0065 c -0.09926,0.0035 -0.388188,-0.01796 -0.642061,-0.04786 z"
     id="path4158"
     inkscape:connector-curvature="0" /><path
     style="opacity:0;fill:#3d6480;fill-opacity:1;stroke:none;stroke-width:0.13841949"
     d="m -59.489695,-4.0890152 c -8.517727,-0.764312 -14.28708,-9.3273638 -11.956231,-17.7458108 1.506823,-5.442273 6.424411,-9.60693 11.873415,-10.055478 5.879191,-0.48396 11.118174,2.546522 13.640219,7.890163 0.999334,2.117364 1.242636,3.261183 1.246967,5.862276 0.0036,2.133983 -0.01208,2.258917 -0.428807,3.427434 -0.574645,1.611315 -1.177154,2.59551 -2.263858,3.69799 -3.008161,3.0518378 -7.238802,2.9176308 -11.3277,-0.359347 -2.02326,-1.621507 -5.990519,-5.983864 -6.719747,-7.388965 -0.888836,-1.71264 -1.002607,-3.403092 -0.32818,-4.876237 0.653521,-1.427475 1.647157,-2.103748 3.512488,-2.39061 0.536551,-0.08251 0.59666,-0.0562 1.006353,0.440502 0.786353,0.953366 1.384259,3.090932 0.995574,3.559268 -0.08894,0.107163 -0.581236,0.297654 -1.093997,0.423313 -1.198362,0.293674 -1.31635,0.375082 -1.301482,0.898002 0.01576,0.554309 0.609531,1.237406 4.007452,4.610338 2.081225,2.065917 2.689907,2.595365 2.983771,2.595365 0.478403,0 0.724178,-0.390112 0.935954,-1.485616 0.09173,-0.474501 0.253424,-0.934639 0.359327,-1.022531 0.486319,-0.403609 2.858267,0.35637 3.665737,1.174515 l 0.363668,0.368475 -0.201574,1.070862 c -0.231472,1.229693 -0.521291,1.767466 -1.321798,2.452673 l -0.568779,0.48685 0.427843,0 c 1.314154,0 3.090321,-0.994878 4.053338,-2.270382 4.008272,-5.308919 0.878494,-14.143216 -5.953964,-16.806017 -3.700417,-1.442156 -7.744126,-0.991832 -11.069985,1.232798 -4.77769,3.195745 -6.684912,9.441703 -4.560994,14.936793 1.498646,3.8773588 5.095311,6.8251568 9.201099,7.5411468 0.663411,0.115688 1.476907,0.210344 1.807768,0.210344 0.488456,0 0.644073,0.06489 0.827643,0.345039 0.292362,0.446201 0.166065,0.94509 -0.292101,1.153844 -0.195733,0.08918 -0.368521,0.153199 -0.383971,0.142258 -0.01545,-0.01093 -0.526403,-0.0646 -1.135448,-0.119255 z"
     id="path4720"
     inkscape:connector-curvature="0" /><path
     style="opacity:0;fill:#3d6480;fill-opacity:1;stroke:none"
     d="m -59.439209,-4.0222042 c -5.914507,-0.525222 -10.878625,-4.916201 -12.223967,-10.8126318 -0.264223,-1.158048 -0.314446,-1.661199 -0.315077,-3.156545 -6.02e-4,-1.428074 0.02798,-1.760044 0.244427,-2.839158 0.582682,-2.904983 2.150029,-5.677709 4.306293,-7.618081 2.077812,-1.869775 4.47871,-3.014627 7.218455,-3.442073 0.792794,-0.123689 2.557731,-0.151336 3.401239,-0.05328 4.178127,0.485706 7.800699,2.769186 10.093626,6.362497 0.376858,0.590583 1.062626,1.973147 1.304089,2.629143 0.578069,1.570479 0.864496,3.167697 0.867086,4.835182 0.0019,1.250876 -0.129836,2.143732 -0.479274,3.247265 -0.974858,3.078626 -3.059242,5.2290899 -5.729652,5.9112899 -2.615561,0.668189 -5.518795,-0.261862 -8.365191,-2.6797869 -1.458499,-1.23895 -5.193112,-5.256665 -5.993558,-6.447898 -0.799974,-1.190531 -1.150473,-2.370572 -1.105612,-3.722318 0.0522,-1.572875 0.666002,-2.768578 1.85175,-3.607265 0.413249,-0.292294 0.723447,-0.39405 1.760618,-0.577545 l 0.843906,-0.149302 0.189416,0.12535 c 0.404282,0.267541 0.937601,1.185312 1.273064,2.190775 0.173257,0.519289 0.202543,0.670217 0.220645,1.13709 0.01853,0.4778 0.0097,0.555993 -0.07823,0.695461 -0.109203,0.17316 -0.154508,0.189515 -1.228454,0.443458 -1.090271,0.257805 -1.325475,0.429111 -1.245847,0.907387 0.08034,0.482534 0.332916,0.783782 2.346968,2.799202 0.780571,0.781102 1.991805,2.007423 2.691627,2.725155 0.98746,1.012733 1.329578,1.333123 1.527707,1.430685 0.272848,0.134357 0.629188,0.166522 0.804624,0.07263 0.156297,-0.08365 0.309506,-0.496948 0.50705,-1.367835 0.100532,-0.443185 0.211977,-0.863251 0.247663,-0.93348 0.332932,-0.655188 2.807306,0.02049 3.874483,1.058 0.362652,0.352572 0.357244,0.31316 0.183212,1.334864 -0.167927,0.98586 -0.281344,1.336514 -0.564983,1.746752 -0.276059,0.399278 -0.794224,0.932694 -1.073193,1.104786 -0.106747,0.06585 -0.194676,0.13928 -0.1954,0.163179 -0.0016,0.05428 0.645897,-0.0018 1.074523,-0.09303 1.66588,-0.354648 3.11284,-1.585258 4.058069,-3.451303 0.89701,-1.770852 1.148531,-3.507991 0.831312,-5.741463 -0.378858,-2.667483 -1.583339,-5.082121 -3.493813,-7.004096 -0.957902,-0.963669 -1.931986,-1.658077 -3.229953,-2.302578 -1.717399,-0.85277 -3.285824,-1.216728 -5.236439,-1.215131 -1.036286,8.48e-4 -1.453949,0.03974 -2.349057,0.218735 -3.537044,0.707306 -6.684884,3.106102 -8.341292,6.35644 -0.721031,1.414868 -1.090046,2.606124 -1.303735,4.208726 -0.108423,0.813141 -0.108568,2.268134 -3.08e-4,3.083137 0.672899,5.065739 4.235675,9.1780568 9.009133,10.3987528 0.895034,0.228882 1.451467,0.313891 2.383258,0.364098 0.879718,0.0474 1.010294,0.0843 1.232389,0.348244 0.158637,0.188531 0.195456,0.328067 0.166387,0.63059 -0.02856,0.297243 -0.187836,0.525658 -0.449363,0.64443 -0.219454,0.09967 -0.705292,0.113009 -1.510621,0.04149 z"
     id="path6157"
     inkscape:connector-curvature="0" /><path
     style="opacity:0;fill:#3d6480;fill-opacity:1;stroke:none"
     d="m -59.439209,-4.0222042 c -5.914507,-0.525222 -10.878625,-4.916201 -12.223967,-10.8126318 -0.264223,-1.158048 -0.314446,-1.661199 -0.315077,-3.156545 -6.02e-4,-1.428074 0.02798,-1.760044 0.244427,-2.839158 0.582682,-2.904983 2.150029,-5.677709 4.306293,-7.618081 2.077812,-1.869775 4.47871,-3.014627 7.218455,-3.442073 0.792794,-0.123689 2.557731,-0.151336 3.401239,-0.05328 4.178127,0.485706 7.800699,2.769186 10.093626,6.362497 0.376858,0.590583 1.062626,1.973147 1.304089,2.629143 0.578069,1.570479 0.864496,3.167697 0.867086,4.835182 0.0019,1.250876 -0.129836,2.143732 -0.479274,3.247265 -0.974858,3.078626 -3.059242,5.2290899 -5.729652,5.9112899 -2.615561,0.668189 -5.518795,-0.261862 -8.365191,-2.6797869 -1.458499,-1.23895 -5.193112,-5.256665 -5.993558,-6.447898 -0.799974,-1.190531 -1.150473,-2.370572 -1.105612,-3.722318 0.0522,-1.572875 0.666002,-2.768578 1.85175,-3.607265 0.413249,-0.292294 0.723447,-0.39405 1.760618,-0.577545 l 0.843906,-0.149302 0.189416,0.12535 c 0.404282,0.267541 0.937601,1.185312 1.273064,2.190775 0.173257,0.519289 0.202543,0.670217 0.220645,1.13709 0.01853,0.4778 0.0097,0.555993 -0.07823,0.695461 -0.109203,0.17316 -0.154508,0.189515 -1.228454,0.443458 -1.090271,0.257805 -1.325475,0.429111 -1.245847,0.907387 0.08034,0.482534 0.332916,0.783782 2.346968,2.799202 0.780571,0.781102 1.991805,2.007423 2.691627,2.725155 0.98746,1.012733 1.329578,1.333123 1.527707,1.430685 0.272848,0.134357 0.629188,0.166522 0.804624,0.07263 0.156297,-0.08365 0.309506,-0.496948 0.50705,-1.367835 0.100532,-0.443185 0.211977,-0.863251 0.247663,-0.93348 0.332932,-0.655188 2.807306,0.02049 3.874483,1.058 0.362652,0.352572 0.357244,0.31316 0.183212,1.334864 -0.167927,0.98586 -0.281344,1.336514 -0.564983,1.746752 -0.276059,0.399278 -0.794224,0.932694 -1.073193,1.104786 -0.106747,0.06585 -0.194676,0.13928 -0.1954,0.163179 -0.0016,0.05428 0.645897,-0.0018 1.074523,-0.09303 1.66588,-0.354648 3.11284,-1.585258 4.058069,-3.451303 0.89701,-1.770852 1.148531,-3.507991 0.831312,-5.741463 -0.378858,-2.667483 -1.583339,-5.082121 -3.493813,-7.004096 -0.957902,-0.963669 -1.931986,-1.658077 -3.229953,-2.302578 -1.717399,-0.85277 -3.285824,-1.216728 -5.236439,-1.215131 -1.036286,8.48e-4 -1.453949,0.03974 -2.349057,0.218735 -3.537044,0.707306 -6.684884,3.106102 -8.341292,6.35644 -0.721031,1.414868 -1.090046,2.606124 -1.303735,4.208726 -0.108423,0.813141 -0.108568,2.268134 -3.08e-4,3.083137 0.672899,5.065739 4.235675,9.1780568 9.009133,10.3987528 0.895034,0.228882 1.451467,0.313891 2.383258,0.364098 0.879718,0.0474 1.010294,0.0843 1.232389,0.348244 0.158637,0.188531 0.195456,0.328067 0.166387,0.63059 -0.02856,0.297243 -0.187836,0.525658 -0.449363,0.64443 -0.219454,0.09967 -0.705292,0.113009 -1.510621,0.04149 z"
     id="path6159"
     inkscape:connector-curvature="0" /><path
     style="opacity:0;fill:#3d6480;fill-opacity:1;stroke:none"
     d="m -59.439209,-4.0222042 c -5.914507,-0.525222 -10.878625,-4.916201 -12.223967,-10.8126318 -0.264223,-1.158048 -0.314446,-1.661199 -0.315077,-3.156545 -6.02e-4,-1.428074 0.02798,-1.760044 0.244427,-2.839158 0.582682,-2.904983 2.150029,-5.677709 4.306293,-7.618081 2.077812,-1.869775 4.47871,-3.014627 7.218455,-3.442073 0.792794,-0.123689 2.557731,-0.151336 3.401239,-0.05328 4.178127,0.485706 7.800699,2.769186 10.093626,6.362497 0.376858,0.590583 1.062626,1.973147 1.304089,2.629143 0.578069,1.570479 0.864496,3.167697 0.867086,4.835182 0.0019,1.250876 -0.129836,2.143732 -0.479274,3.247265 -0.974858,3.078626 -3.059242,5.2290899 -5.729652,5.9112899 -2.615561,0.668189 -5.518795,-0.261862 -8.365191,-2.6797869 -1.458499,-1.23895 -5.193112,-5.256665 -5.993558,-6.447898 -0.799974,-1.190531 -1.150473,-2.370572 -1.105612,-3.722318 0.0522,-1.572875 0.666002,-2.768578 1.85175,-3.607265 0.413249,-0.292294 0.723447,-0.39405 1.760618,-0.577545 l 0.843906,-0.149302 0.189416,0.12535 c 0.404282,0.267541 0.937601,1.185312 1.273064,2.190775 0.173257,0.519289 0.202543,0.670217 0.220645,1.13709 0.01853,0.4778 0.0097,0.555993 -0.07823,0.695461 -0.109203,0.17316 -0.154508,0.189515 -1.228454,0.443458 -1.090271,0.257805 -1.325475,0.429111 -1.245847,0.907387 0.08034,0.482534 0.332916,0.783782 2.346968,2.799202 0.780571,0.781102 1.991805,2.007423 2.691627,2.725155 0.98746,1.012733 1.329578,1.333123 1.527707,1.430685 0.272848,0.134357 0.629188,0.166522 0.804624,0.07263 0.156297,-0.08365 0.309506,-0.496948 0.50705,-1.367835 0.100532,-0.443185 0.211977,-0.863251 0.247663,-0.93348 0.332932,-0.655188 2.807306,0.02049 3.874483,1.058 0.362652,0.352572 0.357244,0.31316 0.183212,1.334864 -0.167927,0.98586 -0.281344,1.336514 -0.564983,1.746752 -0.276059,0.399278 -0.794224,0.932694 -1.073193,1.104786 -0.106747,0.06585 -0.194676,0.13928 -0.1954,0.163179 -0.0016,0.05428 0.645897,-0.0018 1.074523,-0.09303 1.66588,-0.354648 3.11284,-1.585258 4.058069,-3.451303 0.89701,-1.770852 1.148531,-3.507991 0.831312,-5.741463 -0.378858,-2.667483 -1.583339,-5.082121 -3.493813,-7.004096 -0.957902,-0.963669 -1.931986,-1.658077 -3.229953,-2.302578 -1.717399,-0.85277 -3.285824,-1.216728 -5.236439,-1.215131 -1.036286,8.48e-4 -1.453949,0.03974 -2.349057,0.218735 -3.537044,0.707306 -6.684884,3.106102 -8.341292,6.35644 -0.721031,1.414868 -1.090046,2.606124 -1.303735,4.208726 -0.108423,0.813141 -0.108568,2.268134 -3.08e-4,3.083137 0.672899,5.065739 4.235675,9.1780568 9.009133,10.3987528 0.895034,0.228882 1.451467,0.313891 2.383258,0.364098 0.879718,0.0474 1.010294,0.0843 1.232389,0.348244 0.158637,0.188531 0.195456,0.328067 0.166387,0.63059 -0.02856,0.297243 -0.187836,0.525658 -0.449363,0.64443 -0.219454,0.09967 -0.705292,0.113009 -1.510621,0.04149 z"
     id="path6161"
     inkscape:connector-curvature="0" /><path
     style="opacity:0;fill:#3d6480;fill-opacity:1;stroke:none"
     d="m -59.439209,-4.0222042 c -5.914507,-0.525222 -10.878625,-4.916201 -12.223967,-10.8126318 -0.264223,-1.158048 -0.314446,-1.661199 -0.315077,-3.156545 -6.02e-4,-1.428074 0.02798,-1.760044 0.244427,-2.839158 0.582682,-2.904983 2.150029,-5.677709 4.306293,-7.618081 2.077812,-1.869775 4.47871,-3.014627 7.218455,-3.442073 0.792794,-0.123689 2.557731,-0.151336 3.401239,-0.05328 4.178127,0.485706 7.800699,2.769186 10.093626,6.362497 0.376858,0.590583 1.062626,1.973147 1.304089,2.629143 0.578069,1.570479 0.864496,3.167697 0.867086,4.835182 0.0019,1.250876 -0.129836,2.143732 -0.479274,3.247265 -0.974858,3.078626 -3.059242,5.2290899 -5.729652,5.9112899 -2.615561,0.668189 -5.518795,-0.261862 -8.365191,-2.6797869 -1.458499,-1.23895 -5.193112,-5.256665 -5.993558,-6.447898 -0.799974,-1.190531 -1.150473,-2.370572 -1.105612,-3.722318 0.0522,-1.572875 0.666002,-2.768578 1.85175,-3.607265 0.413249,-0.292294 0.723447,-0.39405 1.760618,-0.577545 l 0.843906,-0.149302 0.189416,0.12535 c 0.404282,0.267541 0.937601,1.185312 1.273064,2.190775 0.173257,0.519289 0.202543,0.670217 0.220645,1.13709 0.01853,0.4778 0.0097,0.555993 -0.07823,0.695461 -0.109203,0.17316 -0.154508,0.189515 -1.228454,0.443458 -1.090271,0.257805 -1.325475,0.429111 -1.245847,0.907387 0.08034,0.482534 0.332916,0.783782 2.346968,2.799202 0.780571,0.781102 1.991805,2.007423 2.691627,2.725155 0.98746,1.012733 1.329578,1.333123 1.527707,1.430685 0.272848,0.134357 0.629188,0.166522 0.804624,0.07263 0.156297,-0.08365 0.309506,-0.496948 0.50705,-1.367835 0.100532,-0.443185 0.211977,-0.863251 0.247663,-0.93348 0.332932,-0.655188 2.807306,0.02049 3.874483,1.058 0.362652,0.352572 0.357244,0.31316 0.183212,1.334864 -0.167927,0.98586 -0.281344,1.336514 -0.564983,1.746752 -0.276059,0.399278 -0.794224,0.932694 -1.073193,1.104786 -0.106747,0.06585 -0.194676,0.13928 -0.1954,0.163179 -0.0016,0.05428 0.645897,-0.0018 1.074523,-0.09303 1.66588,-0.354648 3.11284,-1.585258 4.058069,-3.451303 0.89701,-1.770852 1.148531,-3.507991 0.831312,-5.741463 -0.378858,-2.667483 -1.583339,-5.082121 -3.493813,-7.004096 -0.957902,-0.963669 -1.931986,-1.658077 -3.229953,-2.302578 -1.717399,-0.85277 -3.285824,-1.216728 -5.236439,-1.215131 -1.036286,8.48e-4 -1.453949,0.03974 -2.349057,0.218735 -3.537044,0.707306 -6.684884,3.106102 -8.341292,6.35644 -0.721031,1.414868 -1.090046,2.606124 -1.303735,4.208726 -0.108423,0.813141 -0.108568,2.268134 -3.08e-4,3.083137 0.672899,5.065739 4.235675,9.1780568 9.009133,10.3987528 0.895034,0.228882 1.451467,0.313891 2.383258,0.364098 0.879718,0.0474 1.010294,0.0843 1.232389,0.348244 0.158637,0.188531 0.195456,0.328067 0.166387,0.63059 -0.02856,0.297243 -0.187836,0.525658 -0.449363,0.64443 -0.219454,0.09967 -0.705292,0.113009 -1.510621,0.04149 z"
     id="path6163"
     inkscape:connector-curvature="0" /><path
     style="opacity:0;fill:#3d6480;fill-opacity:1;stroke:none"
     d="m -81.070106,-4.0222042 c -5.914507,-0.525222 -10.878624,-4.916201 -12.223967,-10.8126318 -0.264223,-1.158048 -0.314446,-1.661199 -0.315076,-3.156545 -6.02e-4,-1.428074 0.02798,-1.760044 0.244426,-2.839158 0.582682,-2.904983 2.150029,-5.677709 4.306293,-7.618081 2.077812,-1.869775 4.47871,-3.014627 7.218456,-3.442073 0.792794,-0.123689 2.55773,-0.151336 3.401238,-0.05328 4.178128,0.485706 7.800699,2.769186 10.093627,6.362497 0.376857,0.590583 1.062625,1.973147 1.304089,2.629143 0.578069,1.570479 0.864495,3.167697 0.867086,4.835182 0.0019,1.250876 -0.129837,2.143732 -0.479275,3.247265 -0.974858,3.078626 -3.059242,5.2290899 -5.729651,5.9112899 -2.615561,0.668189 -5.518796,-0.261862 -8.365192,-2.6797869 -1.458499,-1.23895 -5.193112,-5.256665 -5.993558,-6.447898 -0.799974,-1.190531 -1.150473,-2.370572 -1.105611,-3.722318 0.0522,-1.572875 0.666001,-2.768578 1.851749,-3.607265 0.41325,-0.292294 0.723447,-0.39405 1.760619,-0.577545 l 0.843905,-0.149302 0.189417,0.12535 c 0.404281,0.267541 0.9376,1.185312 1.273064,2.190775 0.173256,0.519289 0.202542,0.670217 0.220644,1.13709 0.01853,0.4778 0.0097,0.555993 -0.07823,0.695461 -0.109204,0.17316 -0.154509,0.189515 -1.228455,0.443458 -1.09027,0.257805 -1.325474,0.429111 -1.245846,0.907387 0.08034,0.482534 0.332916,0.783782 2.346967,2.799202 0.780572,0.781102 1.991804,2.007423 2.691627,2.725155 0.98746,1.012733 1.329579,1.333123 1.527707,1.430685 0.272848,0.134357 0.629189,0.166522 0.804624,0.07263 0.156298,-0.08365 0.309507,-0.496948 0.507051,-1.367835 0.100533,-0.443185 0.211978,-0.863251 0.247663,-0.93348 0.332932,-0.655188 2.807306,0.02049 3.874483,1.058 0.362652,0.352572 0.357243,0.31316 0.183212,1.334864 -0.167927,0.98586 -0.281345,1.336514 -0.564983,1.746752 -0.27606,0.399278 -0.794224,0.932694 -1.073195,1.104786 -0.106745,0.06585 -0.194675,0.13928 -0.195398,0.163179 -0.0016,0.05428 0.645897,-0.0018 1.074522,-0.09303 1.665881,-0.354645 3.11284,-1.585255 4.05807,-3.4513 0.897009,-1.770852 1.148531,-3.507991 0.831312,-5.741463 -0.37886,-2.667489 -1.583341,-5.082127 -3.493816,-7.004102 -0.957902,-0.963669 -1.931985,-1.658077 -3.229952,-2.302578 -1.7174,-0.85277 -3.285824,-1.216728 -5.23644,-1.215131 -1.036286,8.48e-4 -1.453949,0.03974 -2.349056,0.218735 -3.537042,0.707309 -6.684882,3.106105 -8.341289,6.356443 -0.721031,1.414868 -1.090047,2.606124 -1.303735,4.208726 -0.108423,0.813141 -0.108569,2.268134 -3.08e-4,3.083137 0.672899,5.065739 4.235674,9.1780568 9.009132,10.3987528 0.895035,0.228882 1.451467,0.313891 2.383258,0.364098 0.879719,0.0474 1.010294,0.0843 1.232389,0.348244 0.158638,0.188531 0.195456,0.328067 0.166388,0.63059 -0.02856,0.297243 -0.187837,0.525658 -0.449363,0.64443 -0.219455,0.09967 -0.705293,0.113009 -1.510622,0.04149 z"
     id="path6165"
     inkscape:connector-curvature="0" /><path
     style="opacity:0;fill:#3d6480;fill-opacity:1;stroke:none"
     d="m -81.070106,-4.0222042 c -5.914507,-0.525222 -10.878624,-4.916201 -12.223967,-10.8126318 -0.264223,-1.158048 -0.314446,-1.661199 -0.315076,-3.156545 -6.02e-4,-1.428074 0.02798,-1.760044 0.244426,-2.839158 0.582682,-2.904983 2.150029,-5.677709 4.306293,-7.618081 2.077812,-1.869775 4.47871,-3.014627 7.218456,-3.442073 0.792794,-0.123689 2.55773,-0.151336 3.401238,-0.05328 4.178128,0.485706 7.800699,2.769186 10.093627,6.362497 0.376857,0.590583 1.062625,1.973147 1.304089,2.629143 0.578069,1.570479 0.864495,3.167697 0.867086,4.835182 0.0019,1.250876 -0.129837,2.143732 -0.479275,3.247265 -0.974858,3.078626 -3.059242,5.2290899 -5.729651,5.9112899 -2.615561,0.668189 -5.518796,-0.261862 -8.365192,-2.6797869 -1.458499,-1.23895 -5.193112,-5.256665 -5.993558,-6.447898 -0.799974,-1.190531 -1.150473,-2.370572 -1.105611,-3.722318 0.0522,-1.572875 0.666001,-2.768578 1.851749,-3.607265 0.41325,-0.292294 0.723447,-0.39405 1.760619,-0.577545 l 0.843905,-0.149302 0.189417,0.12535 c 0.404281,0.267541 0.9376,1.185312 1.273064,2.190775 0.173256,0.519289 0.202542,0.670217 0.220644,1.13709 0.01853,0.4778 0.0097,0.555993 -0.07823,0.695461 -0.109204,0.17316 -0.154509,0.189515 -1.228455,0.443458 -1.09027,0.257805 -1.325474,0.429111 -1.245846,0.907387 0.08034,0.482534 0.332916,0.783782 2.346967,2.799202 0.780572,0.781102 1.991804,2.007423 2.691627,2.725155 0.98746,1.012733 1.329579,1.333123 1.527707,1.430685 0.272848,0.134357 0.629189,0.166522 0.804624,0.07263 0.156298,-0.08365 0.309507,-0.496948 0.507051,-1.367835 0.100533,-0.443185 0.211978,-0.863251 0.247663,-0.93348 0.332932,-0.655188 2.807306,0.02049 3.874483,1.058 0.362652,0.352572 0.357243,0.31316 0.183212,1.334864 -0.167927,0.98586 -0.281345,1.336514 -0.564983,1.746752 -0.27606,0.399278 -0.794224,0.932694 -1.073195,1.104786 -0.106745,0.06585 -0.194675,0.13928 -0.195398,0.163179 -0.0016,0.05428 0.645897,-0.0018 1.074522,-0.09303 1.665881,-0.354645 3.11284,-1.585255 4.05807,-3.4513 0.897009,-1.770852 1.148531,-3.507991 0.831312,-5.741463 -0.37886,-2.667489 -1.583341,-5.082127 -3.493816,-7.004102 -0.957902,-0.963669 -1.931985,-1.658077 -3.229952,-2.302578 -1.7174,-0.85277 -3.285824,-1.216728 -5.23644,-1.215131 -1.036286,8.48e-4 -1.453949,0.03974 -2.349056,0.218735 -3.537042,0.707309 -6.684882,3.106105 -8.341289,6.356443 -0.721031,1.414868 -1.090047,2.606124 -1.303735,4.208726 -0.108423,0.813141 -0.108569,2.268134 -3.08e-4,3.083137 0.672899,5.065739 4.235674,9.1780568 9.009132,10.3987528 0.895035,0.228882 1.451467,0.313891 2.383258,0.364098 0.879719,0.0474 1.010294,0.0843 1.232389,0.348244 0.158638,0.188531 0.195456,0.328067 0.166388,0.63059 -0.02856,0.297243 -0.187837,0.525658 -0.449363,0.64443 -0.219455,0.09967 -0.705293,0.113009 -1.510622,0.04149 z"
     id="path6167"
     inkscape:connector-curvature="0" /><path
     style="opacity:1;fill:#ff9c04;fill-opacity:1;fill-rule:nonzero;stroke:#ff9c04;stroke-width:0.22268686;stroke-linecap:round;stroke-linejoin:round;stroke-miterlimit:4;stroke-dasharray:none;stroke-opacity:1"
     d="m 25.91007,28.849645 c -0.31682,-1.091676 -0.592722,-1.99481 -0.613116,-2.006976 -0.0204,-0.01219 -0.388937,-0.09239 -0.818982,-0.178301 -0.430045,-0.08589 -1.442227,-0.294535 -2.249291,-0.463624 l -1.467389,-0.307424 2.283885,-0.487677 2.283882,-0.487684 0.05022,-0.144956 c 0.02762,-0.07975 0.22531,-0.765655 0.439316,-1.524285 0.418062,-1.481977 0.634679,-2.135058 0.690893,-2.082979 0.01937,0.01797 0.263085,0.86303 0.541577,1.877944 0.278496,1.014921 0.511346,1.851216 0.51745,1.858433 0.01294,0.01535 1.873665,0.418663 3.467509,0.751657 0.609844,0.127414 1.102963,0.23578 1.095823,0.240829 -0.0071,0.0054 -1.037897,0.223301 -2.290574,0.485021 l -2.277593,0.475854 -0.538785,1.989517 -0.538787,1.989515 -0.576036,-1.984864 z"
     id="path4164-2"
     inkscape:connector-curvature="0" /><path
     style="opacity:1;fill:#ff9c04;fill-opacity:1;fill-rule:nonzero;stroke:#ff9c04;stroke-width:0.11341006;stroke-linecap:round;stroke-linejoin:round;stroke-miterlimit:4;stroke-dasharray:none;stroke-opacity:1"
     d="m 17.982126,31.484482 c -0.03196,-0.08635 -0.158957,-0.505045 -0.282238,-0.930545 -0.346066,-1.194434 -0.352715,-1.202463 -1.234645,-1.491289 -0.426199,-0.139573 -1.082309,-0.321325 -1.458028,-0.403878 -0.375722,-0.08254 -0.64395,-0.178897 -0.59607,-0.214096 0.04789,-0.03523 0.649069,-0.186221 1.335978,-0.33563 0.686907,-0.149399 1.30319,-0.298671 1.369514,-0.331711 0.06633,-0.03306 0.299626,-0.600612 0.518447,-1.261289 0.21882,-0.660677 0.412059,-1.212498 0.429423,-1.226272 0.01739,-0.01373 0.21119,0.507448 0.430721,1.158251 0.219534,0.650813 0.468368,1.224863 0.552966,1.275669 0.0846,0.05085 0.704847,0.219523 1.378325,0.374929 1.295539,0.298951 1.533461,0.390176 1.208325,0.463299 -2.612539,0.587553 -2.630103,0.598672 -3.118593,1.973953 -0.197983,0.557405 -0.386086,1.03417 -0.418003,1.059487 -0.03191,0.02529 -0.08417,-0.02457 -0.116122,-0.110878 z"
     id="path4840"
     inkscape:connector-curvature="0" /><path
     style="opacity:1;fill:#ff9c04;fill-opacity:1;fill-rule:nonzero;stroke:#ff9c04;stroke-width:0.03511453;stroke-linecap:round;stroke-linejoin:round;stroke-miterlimit:4;stroke-dasharray:none;stroke-opacity:1"
     d="m 29.50884,21.470805 c -0.01211,-0.01635 -0.0943,-0.302285 -0.18264,-0.635304 -0.08835,-0.333021 -0.183836,-0.635144 -0.212198,-0.67138 -0.0816,-0.104266 -0.548612,-0.274719 -1.35036,-0.492888 -0.149114,-0.04055 -0.259349,-0.08254 -0.244965,-0.0932 0.01439,-0.01066 0.298064,-0.08788 0.630399,-0.171509 0.332335,-0.08364 0.677734,-0.174753 0.767554,-0.202463 l 0.163309,-0.0504 0.138289,-0.478129 c 0.241607,-0.835337 0.311817,-1.045568 0.336354,-1.007164 0.01295,0.02023 0.114654,0.352964 0.226015,0.739318 0.111362,0.386356 0.221455,0.715646 0.244648,0.731768 0.02319,0.01608 0.369656,0.118356 0.769914,0.22722 0.400259,0.108853 0.729245,0.21022 0.731082,0.225258 0.0018,0.01499 -0.262575,0.101166 -0.587584,0.191408 -0.325007,0.09023 -0.65182,0.197955 -0.726253,0.239385 -0.193797,0.107861 -0.278189,0.27042 -0.449078,0.865026 -0.144058,0.501252 -0.207525,0.646659 -0.254486,0.583037 z"
     id="path4842"
     inkscape:connector-curvature="0" /></svg>