<?xml version="1.0" encoding="UTF-8" standalone="no"?>
<svg
   xmlns:dc="http://purl.org/dc/elements/1.1/"
   xmlns:cc="http://creativecommons.org/ns#"
   xmlns:rdf="http://www.w3.org/1999/02/22-rdf-syntax-ns#"
   xmlns:svg="http://www.w3.org/2000/svg"
   xmlns="http://www.w3.org/2000/svg"
   xmlns:sodipodi="http://sodipodi.sourceforge.net/DTD/sodipodi-0.dtd"
   xmlns:inkscape="http://www.inkscape.org/namespaces/inkscape"
   version="1.1"
   id="Capa_1"
   x="0px"
   y="0px"
   width="32px"
   height="32px"
   viewBox="0 0 32.667 32.667"
   style="enable-background:new 0 0 32.667 32.667;"
   xml:space="preserve"
   inkscape:version="0.91 r13725"
   sodipodi:docname="standardizeurl.svg"><metadata
     id="metadata41"><rdf:RDF><cc:Work
         rdf:about=""><dc:format>image/svg+xml</dc:format><dc:type
           rdf:resource="http://purl.org/dc/dcmitype/StillImage" /><dc:title></dc:title></cc:Work></rdf:RDF></metadata><defs
     id="defs39" /><sodipodi:namedview
     pagecolor="#ffffff"
     bordercolor="#666666"
     borderopacity="1"
     objecttolerance="10"
     gridtolerance="10"
     guidetolerance="10"
     inkscape:pageopacity="0"
     inkscape:pageshadow="2"
     inkscape:window-width="1920"
     inkscape:window-height="1027"
     id="namedview37"
     showgrid="false"
     inkscape:zoom="6.3197668"
     inkscape:cx="30.378623"
     inkscape:cy="-7.4932268"
     inkscape:window-x="-8"
     inkscape:window-y="-8"
     inkscape:window-maximized="1"
     inkscape:current-layer="Capa_1" /><g
     id="g7" /><g
     id="g9" /><g
     id="g11" /><g
     id="g13" /><g
     id="g15" /><g
     id="g17" /><g
     id="g19" /><g
     id="g21" /><g
     id="g23" /><g
     id="g25" /><g
     id="g27" /><g
     id="g29" /><g
     id="g31" /><g
     id="g33" /><g
     id="g35" /><text
     xml:space="preserve"
     style="font-style:normal;font-variant:normal;font-weight:bold;font-stretch:normal;font-size:94.00445557px;line-height:127.99999714%;font-family:sans-serif;-inkscape-font-specification:'sans-serif Bold';letter-spacing:0px;word-spacing:0px;fill:#ffffff;fill-opacity:1;stroke:none;stroke-width:1.17499995;stroke-linecap:butt;stroke-linejoin:miter;stroke-miterlimit:4;stroke-dasharray:none;stroke-opacity:1"
     x="-353.44058"
     y="443.45764"
     id="text4142"
     sodipodi:linespacing="128%"
     transform="scale(1.007243,0.99280908)"><tspan
       sodipodi:role="line"
       id="tspan4144"
       x="-353.44058"
       y="443.45764"
       style="fill:#ffffff;fill-opacity:1;stroke:none;stroke-width:1.17499995;stroke-miterlimit:4;stroke-dasharray:none;stroke-opacity:1">URL</tspan></text>
<rect
     style="opacity:1;fill:#3d6480;fill-opacity:1;fill-rule:nonzero;stroke:#3d6480;stroke-width:3.10241961;stroke-linecap:round;stroke-linejoin:round;stroke-miterlimit:4;stroke-dasharray:none;stroke-opacity:1"
     id="rect4140"
     width="16.131958"
     height="4.5789542"
     x="7.9354677"
     y="19.025303" /><text
     xml:space="preserve"
     style="font-style:normal;font-variant:normal;font-weight:bold;font-stretch:normal;font-size:7.51690912px;line-height:127.99999714%;font-family:sans-serif;-inkscape-font-specification:'sans-serif Bold';letter-spacing:0px;word-spacing:0px;fill:#ffffff;fill-opacity:1;stroke:none;stroke-width:1.17499995;stroke-linecap:butt;stroke-linejoin:miter;stroke-miterlimit:4;stroke-dasharray:none;stroke-opacity:1"
     x="7.0873957"
     y="24.611073"
     id="text4142-3"
     sodipodi:linespacing="128%"
     transform="scale(1.0261626,0.97450443)"><tspan
       sodipodi:role="line"
       id="tspan4144-6"
       x="7.0873957"
       y="24.611073"
       style="fill:#ffffff;fill-opacity:1;stroke:none;stroke-width:1.17499995;stroke-miterlimit:4;stroke-dasharray:none;stroke-opacity:1">URL</tspan></text>
<path
     style="opacity:1;fill:#3d6480;fill-opacity:1;fill-rule:nonzero;stroke:none;stroke-width:1.11099994;stroke-linejoin:round;stroke-miterlimit:4;stroke-dasharray:none"
     d="M 14.48509,30.74562 C 10.086064,30.292949 6.2446149,28.237895 3.6075418,24.926471 0.82414806,21.431307 -0.1364786,16.901887 1.0009128,12.636056 1.8684677,9.3822671 3.9467258,6.4715046 6.8545756,4.4375418 9.0768404,2.8831237 11.820843,1.9010949 14.626054,1.6562604 c 0.779601,-0.068044 2.243274,-0.058227 3.037319,0.020351 4.226053,0.4182874 8.096313,2.4645632 10.68099,5.6472363 3.182674,3.9190213 4.053449,9.0053963 2.341676,13.6781563 -1.739871,4.749443 -6.024013,8.349333 -11.256242,9.45842 -1.120006,0.23741 -1.731285,0.297389 -3.182682,0.312289 -0.74945,0.0077 -1.54236,-0.0046 -1.762025,-0.02711 z m 0.892759,-4.092985 0,-2.369311 0.657822,0 0.657823,0 0,2.368632 0,2.368632 0.293669,-0.02481 c 1.983295,-0.167524 3.596459,-0.586198 5.177935,-1.343861 4.080368,-1.95484 6.796128,-5.579398 7.378571,-9.84772 0.03922,-0.287448 0.07132,-0.621255 0.07132,-0.741795 l 0,-0.219161 -6.460744,0 -6.460747,0 0,0.57572 0,0.57572 -0.657823,0 -0.657822,0 0,-0.57572 0,-0.57572 -6.4674894,0 -6.4674882,0 0.032381,0.409647 c 0.3458389,4.374547 3.1969837,8.372894 7.4036779,10.382667 1.5659577,0.748143 3.3777147,1.227486 5.1230167,1.355413 0.116295,0.0085 0.248445,0.01899 0.293673,0.02323 0.07739,0.0073 0.08222,-0.131663 0.08222,-2.361573 z m 0,-12.975852 0,-1.926451 -0.33025,0 c -0.384182,0 -1.516607,-0.106893 -2.160075,-0.203892 C 10.349346,11.163814 7.9098494,10.322019 5.6884989,9.0622783 L 5.021807,8.68419 4.925197,8.79839 C 4.7410288,9.0160816 4.2232909,9.8264532 3.9304879,10.355319 3.1326994,11.796317 2.5902712,13.58678 2.4754426,15.158207 l -0.032507,0.445024 6.4674631,0 6.4674633,0 0,-1.926448 z m 14.221363,1.472514 C 29.480005,13.348784 28.736331,11.185879 27.676809,9.5581662 27.40081,9.134157 27.084296,8.6945858 27.054984,8.6945858 c -0.0076,0 -0.29638,0.161417 -0.641666,0.3587013 -1.229376,0.7024315 -2.877206,1.4104909 -4.252424,1.8272339 -1.515031,0.459115 -3.387535,0.788397 -4.868316,0.856102 l -0.599084,0.02739 0,1.919607 0,1.919608 6.467884,0 6.46789,0 -0.03007,-0.453933 z m -14.221363,-8.1764309 0,-3.5817425 -0.22319,0.018505 C 13.097226,3.5803088 11.666689,3.9465815 9.9743163,4.7359907 8.6397352,5.3585083 7.4374662,6.1794176 6.3616671,7.2027067 L 5.8266814,7.711578 6.032754,7.8346361 c 2.5600697,1.5287054 5.820935,2.5220129 8.828236,2.6892099 0.142134,0.0079 0.316576,0.01805 0.387642,0.02256 l 0.129217,0.0082 0,-3.5817401 z m 2.748755,3.4655689 C 20.282685,10.220611 22.433316,9.6238468 24.399401,8.697841 25.125819,8.3557074 26.155836,7.8004702 26.205983,7.7239882 26.241235,7.6702148 25.328993,6.8056157 24.798794,6.3903066 23.310128,5.2242291 21.647979,4.3860806 19.844675,3.8921519 18.954963,3.6484607 18.102889,3.5080456 16.916679,3.4096392 l -0.223185,-0.018505 0,3.582778 0,3.5827778 0.387642,-0.02589 c 0.213205,-0.01424 0.683665,-0.0558 1.045468,-0.09235 z"
     id="path4146"
     inkscape:connector-curvature="0" /><path
     style="opacity:1;fill:#eff9fe;fill-opacity:1;fill-rule:nonzero;stroke:none;stroke-width:31.46025848;stroke-linecap:round;stroke-linejoin:round;stroke-miterlimit:4;stroke-dasharray:none;stroke-opacity:1"
     d="m 2.5004159,15.145183 c 0.1318232,-1.6632 0.7226433,-3.533239 1.5827868,-5.009774 0.3460874,-0.5940986 0.8887243,-1.3980199 0.9436397,-1.3980199 0.02181,0 0.2817271,0.1362987 0.5776029,0.3028828 2.8417213,1.5999471 6.0826497,2.5665181 9.0340427,2.6943041 l 0.704805,0.03051 0,1.918453 0,1.918455 -6.4395442,0 -6.4395436,0 0.036208,-0.456818 z"
     id="path4148"
     inkscape:connector-curvature="0" /><path
     style="opacity:1;fill:#eff9fe;fill-opacity:1;fill-rule:nonzero;stroke:none;stroke-width:0;stroke-linecap:round;stroke-linejoin:round;stroke-miterlimit:4;stroke-dasharray:none;stroke-opacity:1"
     d="M 14.439667,10.463752 C 12.39223,10.330969 9.8501313,9.6635616 7.782678,8.7160131 7.1637605,8.4323532 6.0522688,7.8461491 5.9393948,7.7438622 5.8353376,7.649567 7.1762163,6.4645176 8.0932079,5.8403442 9.0273121,5.2045242 9.9251373,4.7413217 11.10095,4.2886123 12.247011,3.8473597 13.164346,3.6510955 15.099813,3.4330503 l 0.24348,-0.027425 0,3.554825 0,3.5548287 -0.166589,-0.0072 c -0.09163,-0.004 -0.423291,-0.02391 -0.737037,-0.04426 z"
     id="path4150"
     inkscape:connector-curvature="0" /><path
     style="opacity:1;fill:#eff9fe;fill-opacity:1;fill-rule:nonzero;stroke:none;stroke-width:0;stroke-linecap:round;stroke-linejoin:round;stroke-miterlimit:4;stroke-dasharray:none;stroke-opacity:1"
     d="m 16.727271,6.9604455 0,-3.5548252 0.217845,0.024196 c 1.592201,0.1768518 2.195551,0.2833728 3.104495,0.5480812 1.551212,0.4517508 3.065752,1.2038162 4.434323,2.2019053 0.413408,0.3014986 1.674885,1.4511316 1.674885,1.5263934 0,0.1141283 -2.097575,1.1543184 -3.049876,1.5124299 -1.417581,0.5330893 -2.663029,0.8645749 -4.039517,1.0751519 -0.565626,0.08653 -1.857451,0.219031 -2.14994,0.220515 l -0.192215,9.74e-4 0,-3.5548228 z"
     id="path4152"
     inkscape:connector-curvature="0" /><path
     style="opacity:1;fill:#eff9fe;fill-opacity:1;fill-rule:nonzero;stroke:none;stroke-width:0;stroke-linecap:round;stroke-linejoin:round;stroke-miterlimit:4;stroke-dasharray:none;stroke-opacity:1"
     d="m 16.727271,13.703677 0,-1.898324 0.217845,-0.02547 c 0.119816,-0.014 0.448511,-0.03817 0.730435,-0.05369 1.18258,-0.06512 3.089644,-0.413016 4.382592,-0.799501 1.37903,-0.412216 2.947129,-1.0752334 4.293786,-1.8154814 0.374033,-0.2056041 0.692018,-0.3738234 0.706629,-0.3738234 0.01462,0 0.211639,0.2722387 0.43784,0.6049761 0.88072,1.2955027 1.562009,2.9089257 1.888276,4.4718027 0.103525,0.495916 0.208458,1.307863 0.208458,1.613036 l 0,0.174796 -6.432933,0 -6.432928,0 0,-1.898323 z"
     id="path4154"
     inkscape:connector-curvature="0" /><path
     style="opacity:1;fill:#eff9fe;fill-opacity:1;fill-rule:nonzero;stroke:none;stroke-width:0;stroke-linecap:round;stroke-linejoin:round;stroke-miterlimit:4;stroke-dasharray:none;stroke-opacity:1"
     d="m 16.727271,27.060675 0,-1.924851 3.908452,-0.01354 3.908454,-0.01354 0.272635,-0.145511 c 0.329462,-0.175839 0.547281,-0.40548 0.710585,-0.749149 l 0.122192,-0.257153 -0.0145,-2.708244 c -0.01444,-2.703537 -0.01471,-2.708605 -0.13017,-2.91682 -0.156096,-0.281453 -0.422094,-0.528912 -0.744614,-0.692717 l -0.267395,-0.135806 -3.882821,-0.01383 -3.882825,-0.01383 0,-0.29483 0,-0.29483 6.432928,0 6.432933,0 0,0.170321 c 0,0.305206 -0.154578,1.32296 -0.288947,1.902468 -0.25776,1.11168 -0.746682,2.345732 -1.336226,3.372673 -1.856436,3.233784 -5.305482,5.650191 -9.106673,6.380153 -0.605587,0.116294 -1.762446,0.273883 -2.010574,0.273883 l -0.123441,0 0,-1.924851 z"
     id="path4156"
     inkscape:connector-curvature="0" /><path
     style="opacity:1;fill:#eff9fe;fill-opacity:1;fill-rule:nonzero;stroke:none;stroke-width:0;stroke-linecap:round;stroke-linejoin:round;stroke-miterlimit:4;stroke-dasharray:none;stroke-opacity:1"
     d="M 14.383188,28.91056 C 13.177071,28.758548 11.975176,28.454889 10.832554,28.013495 6.742615,26.433556 3.6611692,22.940651 2.7358528,18.835661 2.6354076,18.390055 2.4774322,17.282138 2.4774322,17.023314 l 0,-0.137287 6.4329272,0 6.4329336,0 0,0.296314 0,0.296316 -3.809448,0 c -4.2261138,0 -4.1136526,-0.008 -4.5651151,0.32414 -0.2882333,0.212041 -0.4583175,0.458868 -0.569025,0.825774 -0.071738,0.237756 -0.080358,0.597747 -0.067274,2.808508 0.01462,2.470234 0.017848,2.5417 0.1245682,2.764078 0.1502207,0.313021 0.4484031,0.617895 0.7585842,0.775617 l 0.2595435,0.131975 3.9346822,0.01352 3.934685,0.01353 -0.0134,1.912511 -0.01341,1.912509 -0.205033,0.0079 c -0.11277,0.0043 -0.441018,-0.02183 -0.729441,-0.05817 z"
     id="path4158"
     inkscape:connector-curvature="0" /><path
     style="opacity:1;fill:#ff9c04;fill-opacity:1;fill-rule:nonzero;stroke:#ff9c04;stroke-width:0.13255122;stroke-linecap:round;stroke-linejoin:round;stroke-miterlimit:4;stroke-dasharray:none;stroke-opacity:1"
     d="m 29.156641,30.567616 c -0.17579,-0.697096 -0.328875,-1.273799 -0.34019,-1.281563 -0.01131,-0.0078 -0.215804,-0.059 -0.454418,-0.113855 -0.238614,-0.05485 -0.800226,-0.188081 -1.248029,-0.296052 l -0.814188,-0.19631 1.267226,-0.311409 1.267223,-0.311413 0.02786,-0.09256 c 0.01532,-0.0509 0.125012,-0.488913 0.243757,-0.973339 0.231964,-0.946326 0.352154,-1.363356 0.383342,-1.330101 0.01074,0.01146 0.145978,0.551092 0.300499,1.199176 0.154524,0.648081 0.283724,1.182103 0.287109,1.186713 0.0072,0.0098 1.03961,0.26734 1.923961,0.479973 0.338375,0.08135 0.611985,0.150562 0.608024,0.153781 -0.0039,0.0033 -0.575883,0.142593 -1.270935,0.309716 l -1.263734,0.303861 -0.298945,1.270417 -0.298948,1.270416 -0.319617,-1.267447 z"
     id="path4164"
     inkscape:connector-curvature="0" /><path
     style="opacity:1;fill:#ff9c04;fill-opacity:1;fill-rule:nonzero;stroke:#ff9c04;stroke-width:0.06750573;stroke-linecap:round;stroke-linejoin:round;stroke-miterlimit:4;stroke-dasharray:none;stroke-opacity:1"
     d="m 24.757783,32.250107 c -0.01771,-0.05511 -0.08819,-0.322499 -0.156601,-0.594203 -0.192014,-0.762712 -0.195704,-0.767842 -0.685045,-0.952274 -0.236481,-0.08912 -0.600525,-0.205182 -0.808995,-0.257899 -0.208472,-0.05271 -0.357299,-0.114237 -0.330733,-0.136709 0.02654,-0.02247 0.360141,-0.118916 0.741275,-0.21432 0.381132,-0.0954 0.72308,-0.19072 0.759882,-0.211814 0.03682,-0.0211 0.16625,-0.383525 0.287664,-0.805405 0.121412,-0.42188 0.22863,-0.774249 0.238264,-0.783043 0.0096,-0.0088 0.117179,0.324029 0.238989,0.739606 0.121809,0.41558 0.259874,0.782142 0.306813,0.814587 0.04695,0.03244 0.391088,0.14018 0.764773,0.239413 0.718835,0.190897 0.850847,0.249149 0.670444,0.295842 -1.449579,0.375188 -1.459325,0.382287 -1.730367,1.260484 -0.109849,0.35593 -0.214219,0.660374 -0.231929,0.676539 -0.01771,0.01616 -0.0467,-0.0157 -0.06443,-0.07081 z"
     id="path4840-8"
     inkscape:connector-curvature="0" /><path
     style="opacity:1;fill:#ff9c04;fill-opacity:1;fill-rule:nonzero;stroke:#ff9c04;stroke-width:0.02090144;stroke-linecap:round;stroke-linejoin:round;stroke-miterlimit:4;stroke-dasharray:none;stroke-opacity:1"
     d="m 31.153431,25.855814 c -0.0067,-0.01042 -0.05232,-0.193026 -0.101336,-0.405679 -0.04902,-0.212653 -0.102001,-0.405576 -0.11774,-0.428715 -0.04528,-0.06658 -0.304397,-0.175425 -0.749253,-0.314736 -0.08274,-0.02591 -0.143902,-0.05269 -0.135919,-0.05951 0.0079,-0.0068 0.165383,-0.0561 0.349781,-0.109516 0.184395,-0.05341 0.376045,-0.111589 0.42588,-0.129284 l 0.09061,-0.03218 0.07673,-0.305313 c 0.134057,-0.53341 0.173012,-0.667657 0.186627,-0.64313 0.0072,0.01293 0.06361,0.225381 0.125404,0.472092 0.06179,0.24671 0.122875,0.456984 0.135745,0.467274 0.01288,0.01031 0.205107,0.07559 0.42719,0.145092 0.222085,0.06951 0.404624,0.134239 0.405643,0.143843 8.7e-4,0.0096 -0.14569,0.0646 -0.326024,0.122223 -0.180329,0.05762 -0.361663,0.126406 -0.402961,0.15286 -0.10753,0.06888 -0.154356,0.172678 -0.249177,0.55237 -0.07992,0.320074 -0.115146,0.412926 -0.141203,0.372304 z"
     id="path4842-5"
     inkscape:connector-curvature="0" /></svg>